<svg width="13" height="11" viewBox="0 0 13 11" fill="none" xmlns="http://www.w3.org/2000/svg">
<path d="M0.0131836 5.10994C0.0131836 4.88694 0.0911836 4.69794 0.247184 4.54194L1.38718 3.40194C1.54218 3.24694 1.73218 3.16894 1.95518 3.16894C2.17818 3.16894 2.36818 3.24594 2.52518 3.40194L4.98518 5.87194L10.4772 0.371939C10.6332 0.215939 10.8232 0.137939 11.0452 0.137939C11.2692 0.137939 11.4582 0.214939 11.6152 0.370939L12.7532 1.51094C12.9092 1.66594 12.9872 1.85594 12.9872 2.07894C12.9872 2.30294 12.9092 2.49294 12.7532 2.64894L6.69318 8.70894L5.55318 9.84894C5.39818 10.0039 5.20818 10.0819 4.98518 10.0819C4.76218 10.0819 4.57218 10.0039 4.41518 9.84794L3.27718 8.70794L0.247184 5.67794C0.0911836 5.52194 0.0131836 5.33194 0.0131836 5.10794V5.10994Z" fill="#00A4BD"/>
</svg>
