<svg width="16" height="16" viewBox="0 0 16 16" fill="none" xmlns="http://www.w3.org/2000/svg">
<path d="M16.0665 14.9365L11.2065 10.0765C12.0195 9.0315 12.51 7.7005 12.51 6.255C12.51 2.8005 9.7095 0 6.255 0C2.8005 0 0 2.8005 0 6.255C0 9.7095 2.8005 12.51 6.255 12.51C7.7005 12.51 9.0315 12.0195 10.091 11.196L10.077 11.2065L14.922 16.0665C15.0635 16.195 15.252 16.2735 15.459 16.2735C15.901 16.2735 16.259 15.9155 16.259 15.4735C16.259 15.2665 16.1805 15.0775 16.051 14.9355L16.0515 14.936L16.0665 14.9365ZM6.2765 10.9015C3.721 10.896 1.6515 8.823 1.6515 6.2665C1.6515 3.7065 3.7265 1.6315 6.2865 1.6315C8.8465 1.6315 10.9215 3.7065 10.9215 6.2665V6.2825V6.2815C10.91 8.8355 8.837 10.9015 6.2815 10.9015H6.276H6.2765Z" fill="#425B76"/>
</svg>
