<svg width="76" height="76" viewBox="0 0 76 76" fill="none" xmlns="http://www.w3.org/2000/svg">
<rect width="76" height="76" fill="#F5F5F5"/>
<rect width="1440" height="1024" transform="translate(-453 -370)" fill="white"/>
<g clip-path="url(#clip0_0_1)">
<path d="M54.9582 23.6004L31.8737 46.6848L20.3874 35.1985C19.9379 34.7489 19.317 34.4708 18.6303 34.4708C17.2581 34.4708 16.1455 35.5834 16.1455 36.9556C16.1455 37.6423 16.4237 38.2631 16.8732 38.7127L30.1228 51.9499C30.5724 52.3994 31.1932 52.6788 31.8799 52.6788C32.5666 52.6788 33.1875 52.4007 33.637 51.9499L58.4724 27.1146C58.9219 26.665 59.2001 26.0442 59.2001 25.3575C59.2001 23.9853 58.0874 22.8727 56.7153 22.8727C56.0286 22.8727 55.4077 23.1508 54.9582 23.6004V23.6004Z" fill="#00BDA5"/>
</g>
<circle cx="37.6727" cy="37.6727" r="35.9227" stroke="#00BDA5" stroke-width="3.5"/>
<defs>
<clipPath id="clip0_0_1">
<rect width="43.0545" height="43.0545" fill="white" transform="translate(16.1455 16.1454)"/>
</clipPath>
</defs>
</svg>
