<svg xmlns="http://www.w3.org/2000/svg" xmlns:xlink="http://www.w3.org/1999/xlink" width="32px" height="31px" viewBox="0 0 32 31" version="1.1">
    <!-- Generator: Sketch 45.1 (43504) - http://www.bohemiancoding.com/sketch -->
    <title>Untitled</title>
    <desc>Created with Sketch.</desc>
    <defs/>
    <g id="Page-1" stroke="none" stroke-width="1" fill="none" fill-rule="evenodd">
        <g id="high-logo" fill-rule="nonzero" fill="#3F5D75">
            <path d="M16,24.54 C20.776,24.528 24.696,20.879 25.137,16.217 L25.14,16.18 L8.88,21.1 C10.567,23.195 13.126,24.527 15.998,24.54 L16,24.54 Z" id="Shape"/>
            <path d="M16,6.09 C11.228,6.107 7.313,9.754 6.873,14.413 L6.87,14.45 L23.12,9.53 C21.433,7.435 18.874,6.103 16.002,6.09 L16,6.09 L16,6.09 Z" id="Shape"/>
            <path d="M30.11,17.5 C30.632,16.917 30.976,16.165 31.049,15.334 L31.05,15.32 C30.976,14.475 30.632,13.723 30.107,13.136 L30.11,13.14 C29.891,12.88 29.709,12.579 29.578,12.252 L29.57,12.23 C29.562,12.144 29.558,12.044 29.558,11.944 C29.558,11.651 29.595,11.368 29.665,11.097 L29.66,11.12 C29.753,10.812 29.806,10.457 29.806,10.091 C29.806,9.624 29.719,9.177 29.561,8.765 L29.57,8.79 C29.156,8.101 28.545,7.567 27.814,7.259 L27.79,7.25 C27.44,7.092 27.139,6.891 26.878,6.648 L26.88,6.65 C26.707,6.362 26.573,6.028 26.494,5.672 L26.49,5.65 C26.347,4.829 25.953,4.118 25.391,3.581 L25.39,3.58 C24.814,3.194 24.106,2.964 23.343,2.964 C23.271,2.964 23.2,2.966 23.13,2.97 L23.14,2.97 C23.133,2.97 23.124,2.97 23.116,2.97 C22.716,2.97 22.333,2.9 21.977,2.773 L22,2.78 C21.712,2.56 21.467,2.302 21.267,2.011 L21.26,2 C20.795,1.348 20.14,0.858 19.376,0.607 L19.35,0.6 C19.204,0.58 19.036,0.568 18.865,0.568 C18.21,0.568 17.594,0.739 17.061,1.04 L17.079,1.03 C16.767,1.203 16.404,1.333 16.019,1.397 L15.999,1.4 C15.596,1.343 15.232,1.224 14.9,1.051 L14.919,1.06 C14.404,0.769 13.789,0.598 13.134,0.598 C12.963,0.598 12.795,0.61 12.63,0.632 L12.649,0.63 C11.863,0.88 11.208,1.36 10.746,1.99 L10.739,2 C10.519,2.288 10.261,2.533 9.97,2.733 L9.959,2.74 C9.652,2.842 9.299,2.901 8.933,2.901 C8.911,2.901 8.888,2.901 8.866,2.9 L8.869,2.9 C8.808,2.896 8.737,2.894 8.666,2.894 C7.904,2.894 7.195,3.124 6.606,3.518 L6.619,3.51 C6.056,4.048 5.662,4.759 5.522,5.558 L5.519,5.58 C5.437,5.958 5.302,6.292 5.121,6.595 L5.129,6.58 C4.87,6.821 4.569,7.022 4.24,7.171 L4.219,7.18 C3.454,7.511 2.837,8.066 2.439,8.762 L2.429,8.78 C2.279,9.166 2.193,9.613 2.193,10.081 C2.193,10.448 2.246,10.802 2.346,11.137 L2.339,11.111 C2.404,11.359 2.441,11.643 2.441,11.936 C2.441,12.036 2.437,12.135 2.428,12.233 L2.429,12.22 C2.291,12.573 2.108,12.877 1.885,13.145 L1.889,13.14 C1.367,13.723 1.023,14.475 0.95,15.306 L0.949,15.32 C1.023,16.165 1.367,16.917 1.892,17.504 L1.889,17.5 C2.108,17.76 2.29,18.061 2.421,18.388 L2.429,18.41 C2.437,18.496 2.441,18.596 2.441,18.696 C2.441,18.989 2.404,19.272 2.334,19.543 L2.339,19.52 C2.246,19.828 2.193,20.183 2.193,20.549 C2.193,21.016 2.28,21.463 2.438,21.875 L2.429,21.85 C2.843,22.539 3.454,23.073 4.185,23.381 L4.209,23.39 C4.559,23.548 4.86,23.749 5.121,23.992 L5.119,23.99 C5.292,24.278 5.426,24.612 5.505,24.968 L5.509,24.99 C5.652,25.811 6.046,26.522 6.608,27.059 L6.609,27.06 C7.185,27.446 7.893,27.676 8.656,27.676 C8.728,27.676 8.799,27.674 8.869,27.67 L8.859,27.67 C8.877,27.67 8.899,27.669 8.921,27.669 C9.288,27.669 9.642,27.728 9.973,27.836 L9.949,27.829 C10.251,28.036 10.509,28.281 10.723,28.561 L10.729,28.569 C11.192,29.235 11.852,29.735 12.623,29.991 L12.649,29.999 C12.795,30.02 12.964,30.031 13.136,30.031 C13.791,30.031 14.405,29.86 14.938,29.559 L14.92,29.568 C15.233,29.404 15.597,29.285 15.982,29.23 L16,29.228 C16.403,29.285 16.767,29.404 17.099,29.577 L17.08,29.568 C17.595,29.833 18.198,30.005 18.836,30.047 L18.85,30.048 C19.028,30.047 19.2,30.025 19.365,29.985 L19.35,29.988 C20.14,29.73 20.795,29.24 21.252,28.599 L21.26,28.588 C21.48,28.3 21.738,28.055 22.029,27.855 L22.04,27.848 C22.347,27.746 22.7,27.687 23.066,27.687 C23.088,27.687 23.111,27.687 23.133,27.688 L23.13,27.688 C23.191,27.692 23.262,27.694 23.333,27.694 C24.095,27.694 24.804,27.464 25.393,27.07 L25.38,27.078 C25.949,26.538 26.347,25.824 26.487,25.02 L26.49,24.998 C26.572,24.62 26.707,24.286 26.888,23.983 L26.88,23.998 C27.139,23.757 27.44,23.556 27.769,23.407 L27.79,23.398 C28.544,23.081 29.155,22.547 29.561,21.875 L29.57,21.858 C29.719,21.472 29.806,21.025 29.806,20.557 C29.806,20.19 29.753,19.836 29.653,19.501 L29.66,19.527 C29.595,19.279 29.558,18.995 29.558,18.702 C29.558,18.602 29.562,18.503 29.571,18.405 L29.57,18.418 C29.708,18.065 29.89,17.761 30.114,17.493 L30.11,17.498 L30.11,17.5 Z M16,26.79 C9.665,26.79 4.53,21.655 4.53,15.32 C4.53,8.985 9.665,3.85 16,3.85 C22.335,3.85 27.47,8.985 27.47,15.32 L27.47,15.32 C27.464,21.652 22.332,26.784 16.001,26.79 L16,26.79 Z" id="Shape"/>
        </g>
    </g>
</svg>